<mxfile host="app.diagrams.net" modified="2023-10-30T11:28:30.893Z" agent="Mozilla/5.0 (Windows NT 10.0; Win64; x64) AppleWebKit/537.36 (KHTML, like Gecko) Chrome/118.0.0.0 Safari/537.36" version="21.5.0" etag="oXkVW6HiRL-0el-eyGCZ" type="github">
  <diagram name="Page-1" id="d_XsLhz0O-0a6h0sQ8mz">
    <mxGraphModel>
      <root>
        <mxCell id="0" />
        <mxCell id="1" parent="0" />
      </root>
    </mxGraphModel>
  </diagram>
</mxfile>
